<svg xmlns="http://www.w3.org/2000/svg" viewBox="0 0 233.19 73.5"><defs><style>.cls-1{font-size:61.74px;}.cls-1,.cls-4{font-family:Chiller-Regular, Chiller;}.cls-2{fill:#fff;}.cls-3{fill:red;}.cls-4{font-size:18.73px;stroke:#000;stroke-miterlimit:10;}</style></defs><title>資產 4</title><g id="圖層_2" data-name="圖層 2"><g id="logo3"><text class="cls-1" transform="translate(0 49.11) scale(1.26 1)"><tspan xml:space="preserve">N  NMEN</tspan></text><path d="M75.4,48.05a31.11,31.11,0,0,0-.89-3.77,46.92,46.92,0,0,0-3.14-7.24c-1.68-3.32-3.53-6.5-5.33-9.62a2.38,2.38,0,0,1,2.17-3.57c2.38.11,4.3.38,2.74-1.28-.79-.85-1.84-2.14.45-5a2.31,2.31,0,0,0,.3-2.44c-.26-.53-.66-.84-1.08-.53-1.33,1-1,.39-1,.33-.1-1.38-1.48.57-2.32,1.66-3,3.91,1,1.64-5,4.45a2.52,2.52,0,0,1-2,.21,21.68,21.68,0,0,1-2.46-1.67,2.39,2.39,0,0,1-.66-3.06l4.58-8.29a2.38,2.38,0,0,0-2.85-3.41,6.83,6.83,0,0,0-4.22,4.66,34.72,34.72,0,0,0-1,5.64c-.16,2-.73,2.21-2.25,2.11a21.44,21.44,0,0,0-7.68.47,7.71,7.71,0,0,0-4.09,4.06c-.76,2,1,3.26,2.41,4.09A8.06,8.06,0,0,0,44.49,27c.78.16,1.56.3,2.32.42a2.38,2.38,0,0,1,1.78,3.36l-4.13,8.79a.23.23,0,0,1-.44-.13v0a.23.23,0,0,0-.44-.13,5.39,5.39,0,0,0,0,4.94c.89,1.37,2.21,1,3.46.22a7.35,7.35,0,0,0,2.18-1.88A5.36,5.36,0,0,0,50,40.11c.16-1.57-.1-3.2.29-4.7a62.81,62.81,0,0,1,2.56-7.16,2.88,2.88,0,0,1,1.28-1.43c1.12-.47,2.32-.55,3.44-1.06,2-.91,3.22-.19,4.13,1.36a2.37,2.37,0,0,0,1.27,1,2.46,2.46,0,0,1,1.47.93,35.11,35.11,0,0,1,2,5.1,2.47,2.47,0,0,0,.18.38,17.55,17.55,0,0,1,1.25,2.53,10.56,10.56,0,0,1,.34,1.63,6,6,0,0,0,.7,1.65q.65,1.25,1.32,2.5c.89,1.67,1.8,3.33,2.7,5l1.07,2A19.37,19.37,0,0,0,75,52c.36-.23.34-.86.4-1.23.08-.56.14-1.11.18-1.67C75.52,48.73,75.46,48.39,75.4,48.05Z"/><path class="cls-2" d="M48.65,25.47a15.68,15.68,0,0,1-4.34-.76c-1.09-.36-2.36-1-1.86-2.88s1.75-1.79,2.93-1.74l-.06,0c2.29-1.36,4.36-.91,6.51-.24a.23.23,0,0,1,.16.27L51.61,22a.23.23,0,0,0,.44.14l.63-1.43C52.43,24.24,51.36,25.55,48.65,25.47Z"/><path class="cls-2" d="M57.36,23.36l-2.63,1a.23.23,0,0,1-.3-.29l.85-2.39a.23.23,0,0,1,.36-.1L57.42,23A.23.23,0,0,1,57.36,23.36Z"/><circle class="cls-3" cx="45.65" cy="22.33" r="1.33"/><text class="cls-4" transform="translate(171.48 67.29) scale(1.46 1)">SUSHI</text></g></g></svg>